# xmcd
#
# Track frame offsets:
#	150
#	19917
#	32080
#	46440
#	58712
#	72157
#	85345
#	98592
#	113475
#	130415
#	143937
#	159767
#	175537
#	191117
#	208262
#	224425
#	240425
#	257395
#
# Disc length: 3665 seconds
#
# Revision: 2
# Processed by: cddbd v1.5.2PL0 Copyright (c) Steve Scherf et al.
# Submitted via: EasyCDDAExtractor 10.2.0.1
#
DISCID=f70e4f12
DTITLE=孙道临 - 唐诗欣赏绝句（二）
DYEAR=1995
DGENRE=唐诗欣赏
TTITLE0=送元二使安西
TTITLE1=别董大
TTITLE2=早春呈水部张十八员外
TTITLE3=寒食
TTITLE4=十五夜望月
TTITLE5=乐游原
TTITLE6=江畔独步寻花
TTITLE7=黄鹤楼送孟浩然之广陵
TTITLE8=乌衣巷
TTITLE9=春行寄兴
TTITLE10=夜上受降城闻笛
TTITLE11=终南望余雪
TTITLE12=芙蓉楼送辛渐
TTITLE13=逢雪宿芙蓉山主人
TTITLE14=逢入京使
TTITLE15=凉州词
TTITLE16=东鲁门泛舟
TTITLE17=霜月
EXTD=
EXTT0=
EXTT1=
EXTT2=
EXTT3=
EXTT4=
EXTT5=
EXTT6=
EXTT7=
EXTT8=
EXTT9=
EXTT10=
EXTT11=
EXTT12=
EXTT13=
EXTT14=
EXTT15=
EXTT16=
EXTT17=
PLAYORDER=
